<svg xmlns="http://www.w3.org/2000/svg" xmlns:xlink="http://www.w3.org/1999/xlink" width="50" zoomAndPan="magnify" viewBox="0 0 37.5 37.499999" height="50" preserveAspectRatio="xMidYMid meet" version="1.0"><defs><clipPath id="61e52f0adf"><path d="M 2.289062 2.347656 L 34.855469 2.347656 L 34.855469 34.914062 L 2.289062 34.914062 Z M 2.289062 2.347656 " clip-rule="nonzero"/></clipPath></defs><g clip-path="url(#61e52f0adf)"><path fill="#ffffff" d="M 18.503906 2.363281 C 9.546875 2.363281 2.289062 9.621094 2.289062 18.578125 C 2.289062 26.621094 8.160156 33.304688 15.835938 34.566406 L 15.835938 23.574219 L 11.710938 23.574219 L 11.710938 18.757812 L 15.835938 18.757812 L 15.835938 15.261719 C 15.835938 11.472656 18.914062 8.902344 22.703125 8.902344 C 24.386719 8.902344 25.441406 9.15625 25.441406 9.15625 L 25.441406 13.199219 L 22.703125 13.199219 C 21.566406 13.199219 20.640625 14.125 20.640625 15.261719 L 20.640625 18.757812 L 25.0625 18.757812 L 24.445312 23.574219 L 20.640625 23.574219 L 20.640625 34.636719 C 28.570312 33.582031 34.691406 26.789062 34.691406 18.578125 C 34.707031 9.621094 27.449219 2.363281 18.503906 2.363281 Z M 18.503906 2.363281 " fill-opacity="1" fill-rule="nonzero"/></g></svg>