<svg xmlns="http://www.w3.org/2000/svg" xmlns:xlink="http://www.w3.org/1999/xlink" width="50" zoomAndPan="magnify" viewBox="0 0 37.5 37.499999" height="50" preserveAspectRatio="xMidYMid meet" version="1.0">
    <defs>
        <clipPath id="21c9666ef0">
            <path d="M 3.070312 3.070312 L 34 3.070312 L 34 34 L 3.070312 34 Z M 3.070312 3.070312 " clip-rule="nonzero"/>
        </clipPath>
    </defs>
    <path fill="#ffffff" d="M 18.5 15.078125 C 16.617188 15.078125 15.078125 16.617188 15.078125 18.5 C 15.078125 20.382812 16.617188 21.917969 18.5 21.917969 C 20.382812 21.917969 21.917969 20.382812 21.917969 18.5 C 21.917969 16.617188 20.382812 15.078125 18.5 15.078125 Z M 18.5 15.078125 " fill-opacity="1" fill-rule="nonzero"/>
    <path fill="#ffffff" d="M 23.09375 10.109375 L 13.902344 10.109375 C 11.820312 10.109375 10.109375 11.808594 10.109375 13.902344 L 10.109375 23.09375 C 10.109375 25.175781 11.808594 26.886719 13.902344 26.886719 L 23.09375 26.886719 C 25.175781 26.886719 26.886719 25.191406 26.886719 23.09375 L 26.886719 13.902344 C 26.875 11.808594 25.175781 10.109375 23.09375 10.109375 Z M 18.5 23.640625 C 15.652344 23.640625 13.34375 21.332031 13.34375 18.484375 C 13.34375 15.640625 15.652344 13.328125 18.5 13.328125 C 21.34375 13.328125 23.65625 15.640625 23.65625 18.484375 C 23.640625 21.332031 21.332031 23.640625 18.5 23.640625 Z M 24.015625 14.199219 C 23.332031 14.199219 22.773438 13.636719 22.773438 12.957031 C 22.773438 12.273438 23.332031 11.714844 24.015625 11.714844 C 24.695312 11.714844 25.257812 12.273438 25.257812 12.957031 C 25.257812 13.648438 24.710938 14.199219 24.015625 14.199219 Z M 24.015625 14.199219 " fill-opacity="1" fill-rule="nonzero"/>
    <g clip-path="url(#21c9666ef0)">
        <path fill="#ffffff" d="M 18.5 3.070312 C 9.976562 3.070312 3.070312 9.976562 3.070312 18.5 C 3.070312 27.019531 9.976562 33.925781 18.5 33.925781 C 27.019531 33.925781 33.925781 27.019531 33.925781 18.5 C 33.914062 9.976562 27.007812 3.070312 18.5 3.070312 Z M 28.609375 23.09375 C 28.609375 26.140625 26.125 28.625 23.078125 28.625 L 13.902344 28.625 C 10.859375 28.625 8.375 26.140625 8.375 23.09375 L 8.375 13.902344 C 8.375 10.859375 10.859375 8.375 13.902344 8.375 L 23.09375 8.375 C 26.140625 8.375 28.625 10.859375 28.625 13.902344 L 28.625 23.09375 Z M 28.609375 23.09375 " fill-opacity="1" fill-rule="nonzero"/>
    </g>
</svg>