<svg xmlns="http://www.w3.org/2000/svg" xmlns:xlink="http://www.w3.org/1999/xlink" width="50" zoomAndPan="magnify" viewBox="0 0 37.5 37.499999" height="50" preserveAspectRatio="xMidYMid meet" version="1.0"><defs><clipPath id="8ce9e4c041"><path d="M 3.035156 3.035156 L 34 3.035156 L 34 34 L 3.035156 34 Z M 3.035156 3.035156 " clip-rule="nonzero"/></clipPath></defs><g clip-path="url(#8ce9e4c041)"><path fill="#ffffff" d="M 18.503906 3.035156 C 9.960938 3.035156 3.035156 9.960938 3.035156 18.503906 C 3.035156 27.042969 9.960938 33.96875 18.503906 33.96875 C 27.042969 33.96875 33.96875 27.042969 33.96875 18.503906 C 33.96875 9.960938 27.042969 3.035156 18.503906 3.035156 Z M 18.503906 6.128906 C 25.335938 6.128906 30.875 11.667969 30.875 18.503906 C 30.875 25.335938 25.335938 30.875 18.503906 30.875 C 17.363281 30.875 16.269531 30.710938 15.222656 30.421875 C 15.550781 29.761719 15.847656 29.0625 16.007812 28.441406 C 16.183594 27.761719 16.914062 24.984375 16.914062 24.984375 C 17.386719 25.886719 18.769531 26.65625 20.242188 26.65625 C 24.625 26.65625 27.78125 22.625 27.78125 17.617188 C 27.78125 12.8125 23.863281 9.222656 18.824219 9.222656 C 12.550781 9.222656 9.222656 13.429688 9.222656 18.015625 C 9.222656 20.148438 10.355469 22.800781 12.171875 23.648438 C 12.445312 23.773438 12.59375 23.71875 12.65625 23.453125 C 12.707031 23.25 12.953125 22.261719 13.0625 21.804688 C 13.097656 21.660156 13.082031 21.53125 12.960938 21.386719 C 12.363281 20.660156 11.878906 19.320312 11.878906 18.074219 C 11.878906 14.867188 14.308594 11.765625 18.441406 11.765625 C 22.011719 11.765625 24.511719 14.199219 24.511719 17.675781 C 24.511719 21.609375 22.527344 24.328125 19.941406 24.328125 C 18.515625 24.328125 17.445312 23.152344 17.789062 21.703125 C 18.199219 19.976562 18.996094 18.113281 18.996094 16.863281 C 18.996094 15.75 18.398438 14.820312 17.15625 14.820312 C 15.699219 14.820312 14.527344 16.328125 14.527344 18.347656 C 14.527344 19.636719 14.960938 20.503906 14.960938 20.503906 C 14.960938 20.503906 13.523438 26.59375 13.257812 27.726562 C 13.125 28.289062 13.082031 28.949219 13.078125 29.613281 C 8.96875 27.601562 6.128906 23.386719 6.128906 18.503906 C 6.128906 11.667969 11.667969 6.128906 18.503906 6.128906 Z M 18.503906 6.128906 " fill-opacity="1" fill-rule="nonzero"/></g></svg>